<?xml version="1.0" encoding="UTF-8"?>
<svg width="225px" height="50px" viewBox="0 0 225 50" version="1.1" xmlns="http://www.w3.org/2000/svg" xmlns:xlink="http://www.w3.org/1999/xlink">
    <!-- Generator: Sketch 52.6 (67491) - http://www.bohemiancoding.com/sketch -->
    <title>Group 20</title>
    <desc>Created with Sketch.</desc>
    <defs>
        <polygon id="path-1" points="0 0.0452529183 27.0314155 0.0452529183 27.0314155 38.8132296 0 38.8132296"></polygon>
        <polygon id="path-3" points="0.0634305374 0.00593385214 14.0278801 0.00593385214 14.0278801 39.5837743 0.0634305374 39.5837743"></polygon>
        <polygon id="path-5" points="0.0456487549 0.0379863813 13.3501966 0.0379863813 13.3501966 28.5914883 0.0456487549 28.5914883"></polygon>
    </defs>
    <g id="Page-1" stroke="none" stroke-width="1" fill="none" fill-rule="evenodd">
        <g id="Group-20">
            <g id="Group-3" transform="translate(0.000000, 11.180837)">
                <mask id="mask-2" fill="white">
                    <use xlink:href="#path-1"></use>
                </mask>
                <g id="Clip-2"></g>
                <path d="M2.93017038,38.682607 L2.93017038,33.8496304 C3.37889253,33.928035 4.25009174,33.9542023 4.77804063,33.9542023 C7.47057012,33.9542023 9.00173001,32.8569261 9.97840105,29.9832879 L10.4007798,28.5987549 L-3.93184797e-05,0.0452529183 L6.17709043,0.0452529183 L13.3837746,22.6424319 L13.8324967,22.6424319 L21.0127392,0.0452529183 L27.0314155,0.0452529183 L16.313886,29.6698638 C13.8589384,36.5927237 11.1399672,38.813249 5.27954784,38.813249 C4.80438401,38.813249 3.45811927,38.7610117 2.93017038,38.682607" id="Fill-1" fill="#000000" mask="url(#mask-2)"></path>
            </g>
            <path d="M58.1535256,39.6750875 L52.6891415,39.6750875 L52.6891415,35.1556323 L52.2404194,35.1556323 C50.8412713,38.3950292 47.9111599,40.2237257 43.5554587,40.2237257 C37.1936304,40.2237257 33.6562451,36.3834533 33.6562451,29.6957101 L33.6562451,11.2260603 L39.3318676,11.2260603 L39.3318676,28.2327724 C39.3318676,32.8306323 41.2060813,35.0249903 45.3769856,35.0249903 C49.9701704,35.0249903 52.4780013,32.3342315 52.4780013,27.8670136 L52.4780013,11.2260603 L58.1535256,11.2260603 L58.1535256,39.6750875 Z" id="Fill-4" fill="#000000"></path>
            <path d="M84.3127982,29.1993677 L84.3127982,26.8221304 L77.2909109,27.2661965 C73.3312451,27.5274805 71.5362582,28.8597763 71.5362582,31.3676556 C71.5362582,33.9277724 73.7800655,35.4168774 76.8686304,35.4168774 C81.1450066,35.4168774 84.3127982,32.7261187 84.3127982,29.1993677 M65.8342923,31.6289397 C65.8342923,26.5086089 69.6883879,23.5565661 76.5253801,23.13857 L84.3127982,22.6945039 L84.3127982,20.2388619 C84.3127982,17.2345817 82.3065727,15.5365272 78.4260354,15.5365272 C75.2583421,15.5365272 73.0673198,16.6859436 72.4337025,18.6975195 L66.9429751,18.6975195 C67.523709,13.8123054 72.1697772,10.6774805 78.690059,10.6774805 C85.8966448,10.6774805 89.961979,14.2303016 89.961979,20.2388619 L89.961979,39.6750486 L84.497595,39.6750486 L84.497595,35.6781615 L84.0487746,35.6781615 C82.3329161,38.5256323 79.1915662,40.1452821 75.4166972,40.1452821 C69.8731848,40.1452821 65.8342923,36.8275778 65.8342923,31.6289397" id="Fill-6" fill="#000000"></path>
            <path d="M99.1209633,11.2260506 L104.585347,11.2260506 L104.585347,15.7455058 L105.007726,15.7455058 C106.406776,12.5845136 109.257759,10.6774125 113.587018,10.6774125 C120.00173,10.6774125 123.539017,14.4915175 123.539017,21.2576654 L123.539017,39.6750778 L117.863493,39.6750778 L117.863493,22.6683658 C117.863493,18.0966732 115.857267,15.8239105 111.659921,15.8239105 C107.462674,15.8239105 104.796488,18.5929767 104.796488,23.0341245 L104.796488,39.6750778 L99.1209633,39.6750778 L99.1209633,11.2260506 Z" id="Fill-8" fill="#000000"></path>
            <path d="M142.333231,11.1215564 C147.718388,11.1215564 151.704495,13.8384825 152.390799,18.0705837 L150.384574,18.0705837 C149.751055,14.9356615 146.55692,12.8980156 142.333231,12.8980156 C138.162326,12.8980156 134.572254,15.3536576 134.572254,18.6452918 C134.572254,21.4666926 136.736835,22.9557004 141.145321,23.9484047 L144.418683,24.7321595 C150.094207,26.0383852 152.865963,28.1021984 152.865963,32.2297276 C152.865963,36.8275875 148.272779,40.1192218 142.465242,40.1192218 C136.420125,40.1192218 132.196435,37.3238911 131.536474,32.7783658 L133.648368,32.7783658 C134.413899,36.2267121 137.739948,38.3427626 142.518028,38.3427626 C147.084869,38.3427626 150.780609,35.7826459 150.780609,32.3603696 C150.780609,29.2254475 148.642372,27.631965 143.811507,26.5086187 L140.300564,25.6987938 C135.100203,24.4970428 132.539587,22.5116342 132.539587,18.6975292 C132.539587,14.3870233 137.000858,11.1215564 142.333231,11.1215564" id="Fill-10" fill="#000000"></path>
            <g id="Group-14" transform="translate(158.846658, 0.091342)">
                <mask id="mask-4" fill="white">
                    <use xlink:href="#path-3"></use>
                </mask>
                <g id="Clip-13"></g>
                <path d="M4.78862713,13.2246304 L0.0634305374,13.2246304 L0.0634305374,11.4481712 L4.78862713,11.4481712 L4.78862713,7.24223735 C4.78862713,2.51383268 7.21723132,0.00585603113 11.5464908,0.00585603113 C12.5232602,0.00585603113 13.2623493,0.0580933852 14.0278801,0.240972763 L14.0278801,1.93902724 C13.4999312,1.83455253 12.7079587,1.78231518 11.8896429,1.78231518 C8.58993775,1.78231518 6.82129423,3.76772374 6.82129423,7.26840467 L6.82129423,11.4481712 L13.7375131,11.4481712 L13.7375131,13.2246304 L6.82129423,13.2246304 L6.82129423,39.5837743 L4.78862713,39.5837743 L4.78862713,13.2246304 Z" id="Fill-12" fill="#000000" mask="url(#mask-4)"></path>
            </g>
            <path d="M180.132916,24.2358074 L200.538519,24.2358074 C200.512077,17.3913521 196.578853,12.9502043 190.560079,12.9502043 C184.541402,12.9502043 180.449725,17.3913521 180.132916,24.2358074 Z M202.069581,33.1702432 C200.670531,37.4023444 196.288388,40.1191732 190.665649,40.1191732 C182.931114,40.1191732 178.021121,34.4763716 178.021121,25.6465078 C178.021121,16.7904767 182.931114,11.1216051 190.58652,11.1216051 C198.004345,11.1216051 202.650315,16.3986479 202.650315,24.7844455 L202.650315,25.9860992 L180.106474,25.9860992 L180.106474,26.0645039 C180.185701,33.4836673 184.330164,38.2904767 190.69209,38.2904767 C195.179705,38.2904767 198.690649,36.3050681 199.931343,33.1702432 L202.069581,33.1702432 Z" id="Fill-15" fill="#000000"></path>
            <g id="Group-19" transform="translate(211.631717, 11.083560)">
                <mask id="mask-6" fill="white">
                    <use xlink:href="#path-5"></use>
                </mask>
                <g id="Clip-18"></g>
                <path d="M0.0456487549,0.45598249 L2.0255308,0.45598249 L2.0255308,5.70685798 L2.21022936,5.70685798 C3.29256881,2.20627432 6.38113368,0.0379863813 10.208886,0.0379863813 C11.4231389,0.0379863813 12.3470249,0.142461089 13.3502359,0.429815175 L13.3502359,2.44139105 C12.4262516,2.12786965 11.2119987,1.97115759 10.0240891,1.97115759 C5.51003277,1.97115759 2.07831586,5.8375 2.07831586,10.9055934 L2.07831586,28.5914883 L0.0456487549,28.5914883 L0.0456487549,0.45598249 Z" id="Fill-17" fill="#000000" mask="url(#mask-6)"></path>
            </g>
        </g>
    </g>
</svg>